#!OML:ASF I:\Actors\actors\Patient Classification 2\Patient 1\Session 1\actor1.ASF
:FULLY-SPECIFIED
:DEGREES
443
root -0.30612 18.8086 5.22411 6.6618 11.354 0.837207
lowerback 12.536 5.87051 2.31652
upperback 1.27091 8.20835 1.7913
thorax -5.58327 3.99422 -0.806796
lowerneck -7.99718 -10.9286 -9.60314
upperneck 1.40938 -14.0171 8.42854
head 2.96167 -6.80705 3.22824
rclavicle -2.14687e-014 2.06736e-014
rhumerus -4.65441 6.8754 -61.294
rradius 74.2447
rwrist -39.312
rhand -1.87801 -45.5914
rfingers 7.12502
rthumb 23.7904 -74.1385
lclavicle -2.14687e-014 2.06736e-014
lhumerus -51.5599 -9.75302 92.6571
lradius 65.7912
lwrist 17.2919
lhand -8.40992 -22.7755
lfingers 7.12502
lthumb 17.5144 6.45558
rfemur 0 0 0
rtibia 0
rfoot 0 0
rtoes 0
lfemur -15.1783 -7.47717 -14.783
ltibia 22.9844
lfoot -16.3445 5.15756
ltoes -55.9836
444
root -0.309889 18.8089 5.23851 6.56578 10.5946 0.896775
lowerback 12.3515 5.82212 2.11829
upperback 1.22347 8.10385 1.63783
thorax -5.53795 3.94734 -0.823624
lowerneck -8.18596 -10.7292 -9.26144
upperneck 1.40262 -13.7513 8.15812
head 2.92334 -6.67653 3.11404
rclavicle 9.58142e-014 -1.59028e-015
rhumerus -2.79493 5.70386 -62.8564
rradius 70.4145
rwrist -37.6209
rhand 0.794728 -47.0594
rfingers 7.12502
rthumb 26.3514 -75.2485
lclavicle 9.58142e-014 -1.59028e-015
lhumerus -51.5238 -9.46596 92.3678
lradius 65.1809
lwrist 17.1282
lhand -8.65345 -22.7506
lfingers 7.12502
lthumb 17.28 6.50118
rfemur 0 0 0
rtibia 0
rfoot 0 0
rtoes 0
lfemur -14.7651 -7.34375 -14.8955
ltibia 22.8349
lfoot -16.6193 5.67993
ltoes -55.9193
445
root -0.313545 18.8076 5.2548 6.40826 9.73482 0.947702
lowerback 12.1738 5.73747 1.90652
upperback 1.15903 7.95168 1.49089
thorax -5.51791 3.87677 -0.820877
lowerneck -8.70026 -10.4971 -8.99764
upperneck 1.88161 -13.4334 7.89796
head 3.08665 -6.51029 2.98757
rclavicle -4.01545e-014 -9.54166e-015
rhumerus -0.396194 4.42786 -64.7786
rradius 65.702
rwrist -35.9904
rhand 2.78902 -48.0934
rfingers 7.12502
rthumb 28.2589 -75.9822
lclavicle -4.01545e-014 -9.54166e-015
lhumerus -51.4912 -9.24041 92.054
lradius 64.3659
lwrist 16.8393
lhand -8.87658 -22.6558
lfingers 7.12502
lthumb 17.0652 6.61464
rfemur 0 0 0
rtibia 0
rfoot 0 0
rtoes 0
lfemur -14.2538 -7.27411 -15.0129
ltibia 22.6901
lfoot -16.9685 6.34196
ltoes -55.8758
446
root -0.316287 18.8051 5.27439 6.21466 8.80295 0.902566
lowerback 11.883 5.64889 1.77597
upperback 1.1057 7.8046 1.37417
thorax -5.41642 3.8093 -0.818941
lowerneck -9.30555 -10.2276 -8.86087
upperneck 2.64017 -13.0653 7.72738
head 3.36204 -6.31414 2.89926
rclavicle -9.34288e-015 6.36111e-015
rhumerus 2.35801 3.04207 -66.9941
rradius 60.1867
rwrist -33.8779
rhand 4.43492 -48.4858
rfingers 7.12502
rthumb 29.8308 -76.1036
lclavicle -9.34288e-015 6.36111e-015
lhumerus -51.3356 -9.1158 91.7725
lradius 63.2717
lwrist 16.2948
lhand -8.84325 -22.4452
lfingers 7.12502
lthumb 17.0973 6.82249
rfemur 0 0 0
rtibia 0
rfoot 0 0
rtoes 0
lfemur -13.7105 -6.93626 -15.0519
ltibia 22.5524
lfoot -17.2456 6.84423
ltoes -55.8742
447
root -0.316713 18.8021 5.2975 6.00041 7.84868 0.833773
lowerback 11.5203 5.56698 1.70789
upperback 1.03586 7.67234 1.22495
thorax -5.27923 3.7481 -0.880595
lowerneck -9.91736 -9.93755 -8.62946
upperneck 3.56679 -12.6897 7.54184
head 3.68437 -6.11281 2.79155
rclavicle 1.05555e-013 -2.14687e-014
rhumerus 5.16272 1.52998 -69.36
rradius 54.238
rwrist -30.7598
rhand 6.55304 -48.7604
rfingers 7.12502
rthumb 31.8501 -75.9963
lclavicle 1.05555e-013 -2.14687e-014
lhumerus -51.0164 -9.20084 91.5215
lradius 61.86
lwrist 15.6282
lhand -8.67943 -22.192
lfingers 7.12502
lthumb 17.255 7.06197
rfemur 0 0 0
rtibia 0
rfoot 0 0
rtoes 0
lfemur -13.1371 -6.47556 -15.0792
ltibia 22.4199
lfoot -17.509 7.24698
ltoes -55.8876
448
root -0.314724 18.7986 5.32291 5.80643 6.93626 0.866186
lowerback 11.1232 5.48678 1.54569
upperback 0.920477 7.53035 1.03946
thorax -5.17823 3.68294 -0.927325
lowerneck -10.57 -9.64867 -8.26459
upperneck 4.62654 -12.339 7.34007
head 4.04978 -5.92004 2.65507
rclavicle -1.2921e-014 2.22639e-014
rhumerus 7.78497 0.113921 -71.6164
rradius 48.3344
rwrist -26.8742
rhand 4.2165 -45.431
rfingers 7.12502
rthumb 29.6224 -73.086
lclavicle -1.2921e-014 2.22639e-014
lhumerus -50.6583 -9.47809 91.3264
lradius 60.3154
lwrist 14.9853
lhand -8.27362 -22.032
lfingers 7.12502
lthumb 17.6455 7.18735
rfemur 0 0 0
rtibia 0
rfoot 0 0
rtoes 0
lfemur -12.5713 -6.17229 -15.2167
ltibia 22.2968
lfoot -17.8233 7.71192
ltoes -55.8931
449
root -0.312683 18.794 5.35037 5.61207 6.08637 0.937176
lowerback 10.6789 5.39116 1.3031
upperback 0.77836 7.35918 0.839312
thorax -5.08753 3.6048 -0.939006
lowerneck -11.214 -9.36076 -7.87087
upperneck 5.75295 -12.0125 7.2308
head 4.44462 -5.73209 2.54174
rclavicle -2.08724e-014 -1.90833e-014
rhumerus 9.48206 -0.353924 -73.2026
rradius 43.8156
rwrist -23.0573
rhand 4.46317 -44.1001
rfingers 7.12502
rthumb 29.8578 -71.713
lclavicle -2.08724e-014 -1.90833e-014
lhumerus -50.3252 -9.82637 91.1127
lradius 58.7958
lwrist 14.274
lhand -7.66547 -22.0527
lfingers 7.12502
lthumb 18.2307 7.11302
rfemur 0 0 0
rtibia 0
rfoot 0 0
rtoes 0
lfemur -12.0077 -6.09413 -15.3896
ltibia 22.1787
lfoot -18.1897 8.30456
ltoes -55.7111
450
root -0.311887 18.7888 5.38021 5.36978 5.3332 0.956359
lowerback 10.2763 5.26702 0.979516
upperback 0.603122 7.14878 0.71647
thorax -5.0746 3.50833 -0.829349
lowerneck -11.7863 -9.06137 -7.63497
upperneck 6.91131 -11.6767 7.27384
head 4.86014 -5.53373 2.50487
rclavicle -2.24627e-014 1.66979e-014
rhumerus 9.39667 1.50506 -73.2934
rradius 42.238
rwrist -21.0203
rhand 7.05192 -45.4845
rfingers 7.12502
rthumb 32.3251 -72.6247
lclavicle -2.24627e-014 1.66979e-014
lhumerus -50.1407 -10.2393 91.1063
lradius 57.8889
lwrist 13.4067
lhand -7.31471 -19.5191
lfingers 7.12502
lthumb 18.5681 9.61474
rfemur 0 0 0
rtibia 0
rfoot 0 0
rtoes 0
lfemur -11.3927 -6.26787 -15.4999
ltibia 22.0563
lfoot -18.6508 9.02194
ltoes -55.428
451
root -0.311473 18.7839 5.41319 5.08356 4.6526 0.886024
lowerback 9.93675 5.15888 0.693491
upperback 0.407052 6.97109 0.668786
thorax -5.12147 3.42705 -0.676043
lowerneck -12.3109 -8.7933 -7.44916
upperneck 8.08732 -11.3797 7.26485
head 5.279 -5.35748 2.46162
rclavicle 1.38155e-014 8.74653e-015
rhumerus 8.02734 5.12152 -72.2725
rradius 43.0649
rwrist -20.9041
rhand 12.0792 -49.995
rfingers 7.12502
rthumb 37.0956 -76.0347
lclavicle 1.38155e-014 8.74653e-015
lhumerus -49.9845 -10.5288 91.0901
lradius 56.7853
lwrist 12.6077
lhand -6.8204 -18.603
lfingers 7.12502
lthumb 19.0435 10.4847
rfemur 0 0 0
rtibia 0
rfoot 0 0
rtoes 0
lfemur -10.7398 -6.50912 -15.5184
ltibia 21.9344
lfoot -19.1036 9.72236
ltoes -55.1998
452
root -0.312146 18.7795 5.44733 4.79184 4.03658 0.770639
lowerback 9.47654 5.02415 0.566081
upperback 0.291704 6.77188 0.574864
thorax -4.99031 3.33398 -0.637745
lowerneck -12.8073 -8.5446 -7.11345
upperneck 9.13392 -11.1164 7.12385
head 5.64203 -5.20232 2.35828
rclavicle -2.48481e-014 -1.19271e-014
rhumerus 6.32924 9.17805 -71.1314
rradius 44.9944
rwrist -21.6587
rhand 12.9352 -50.9183
rfingers 7.12502
rthumb 37.9046 -76.7434
lclavicle -2.48481e-014 -1.19271e-014
lhumerus -49.7117 -10.6689 90.8818
lradius 55.6698
lwrist 11.8833
lhand -6.53234 -18.527
lfingers 7.12502
lthumb 19.3206 10.5332
rfemur 0 0 0
rtibia 0
rfoot 0 0
rtoes 0
lfemur -10.1159 -6.54496 -15.4807
ltibia 21.8247
lfoot -19.4518 10.1715
ltoes -54.9656
453
root -0.314841 18.7739 5.47943 4.5176 3.51065 0.692749
lowerback 8.8951 4.81539 0.355841
upperback 0.248892 6.46594 0.495943
thorax -4.7264 3.19184 -0.511539
lowerneck -13.301 -8.31574 -6.90911
upperneck 10.0998 -10.8698 7.09109
head 5.99792 -5.05238 2.31038
rclavicle 7.39479e-014 -9.14409e-015
rhumerus 4.43259 13.4095 -70.0635
rradius 47.6839
rwrist -22.5111
rhand 13.1594 -51.4178
rfingers 7.12502
rthumb 38.1163 -77.1852
lclavicle 7.39479e-014 -9.14409e-015
lhumerus -49.4202 -10.5221 90.5488
lradius 54.7305
lwrist 11.2804
lhand -6.52621 -18.4423
lfingers 7.12502
lthumb 19.3264 10.6174
rfemur 0 0 0
rtibia 0
rfoot 0 0
rtoes 0
lfemur -9.54063 -6.41252 -15.4656
ltibia 21.7232
lfoot -19.7217 10.4015
ltoes -54.8529
